2000 0 3 0           
15 RobotStudioIRC5 14 ACIS 28.0.2 NT 24 Sat Jun  7 12:26:27 2025 
1000 1e-08 1e-10 
body $3 -1 -1 $-1 $4 $-1 $5 T -0.01 -0.01 0 0.01 0.01 0.20000000000000001 #
body $6 -1 -1 $-1 $7 $-1 $-1 T -0.032000000000000001 -0.032000000000000001 0.20000000000000001 0.032000000000000001 0.032000000000000001 0.26400000000000001 #
body $8 -1 -1 $-1 $9 $-1 $10 T -0.08199999999999999 -0.032000000000000001 0.19999999999999998 -0.031999999999999987 0.032000000000000001 0.26400000000000001 #
rgb_color-st-attrib $-1 -1 $11 $-1 $0 2 1 2 1 1 1 1 1 1 1 1 1 1 1 0 1 1 1 0.49803921568627452 0.49803921568627452 0.49803921568627452 #
lump $-1 -1 -1 $-1 $-1 $12 $0 T -0.01 -0.01 0 0.01 0.01 0.20000000000000001 #
transform $-1 -1 1 0 0 0 1 0 0 0 1 0 0 0 1 no_rotate no_reflect no_shear #
rgb_color-st-attrib $-1 -1 $13 $-1 $1 2 1 2 1 1 1 1 1 1 1 1 1 1 1 0 1 1 1 0.49803921568627452 0.49803921568627452 0.49803921568627452 #
lump $-1 -1 -1 $-1 $-1 $14 $1 T -0.032000000000000001 -0.032000000000000001 0.20000000000000001 0.032000000000000001 0.032000000000000001 0.26400000000000001 #
rgb_color-st-attrib $-1 -1 $15 $-1 $2 2 1 2 1 1 1 1 1 1 1 1 1 1 1 0 1 1 1 0.49803921568627452 0.49803921568627452 0.49803921568627452 #
lump $-1 -1 -1 $-1 $-1 $16 $2 T -0.08199999999999999 -0.032000000000000001 0.19999999999999998 -0.031999999999999987 0.032000000000000001 0.26400000000000001 #
transform $-1 -1 0 0 -1 -0 1 0 1 0 0 -0.23199984651129063 0 0.23199972779677971 1 rotate no_reflect no_shear #
integer_attrib-name_attrib-gen-attrib $-1 -1 $17 $3 $0 2 1 1 1 1 1 1 1 1 1 1 1 1 1 0 1 1 1 @15 PersistentGfxID 0 #
shell $-1 -1 -1 $-1 $-1 $-1 $18 $-1 $4 T -0.01 -0.01 0 0.01 0.01 0.20000000000000001 #
integer_attrib-name_attrib-gen-attrib $-1 -1 $19 $6 $1 2 1 1 1 1 1 1 1 1 1 1 1 1 1 0 1 1 1 @15 PersistentGfxID 4 #
shell $-1 -1 -1 $-1 $-1 $-1 $20 $-1 $7 T -0.032000000000000001 -0.032000000000000001 0.20000000000000001 0.032000000000000001 0.032000000000000001 0.26400000000000001 #
integer_attrib-name_attrib-gen-attrib $-1 -1 $21 $8 $2 2 1 1 1 1 1 1 1 1 1 1 1 1 1 0 1 1 1 @15 PersistentGfxID 0 #
shell $-1 -1 -1 $-1 $-1 $-1 $22 $-1 $9 T -0.08199999999999999 -0.032000000000000001 0.19999999999999998 -0.031999999999999987 0.032000000000000001 0.26400000000000001 #
string_attrib-name_attrib-gen-attrib $-1 -1 $23 $11 $0 2 1 1 1 1 1 1 1 1 1 1 1 1 1 0 1 1 1 @10 NameOfBody @0  #
face $24 -1 -1 $-1 $25 $26 $12 $-1 $27 forward single T -0.01 -0.01 0 0.01 0.01 0.20000000000000001 F #
string_attrib-name_attrib-gen-attrib $-1 -1 $28 $13 $1 2 1 1 1 1 1 1 1 1 1 1 1 1 1 0 1 1 1 @10 NameOfBody @0  #
face $29 -1 -1 $-1 $30 $31 $14 $-1 $32 forward single T -0.032000000000000001 -0.032000000000000001 0.26400000000000001 0.032000000000000001 0.032000000000000001 0.26400000000000001 F #
string_attrib-name_attrib-gen-attrib $-1 -1 $33 $15 $2 2 1 1 1 1 1 1 1 1 1 1 1 1 1 0 1 1 1 @10 NameOfBody @0  #
face $34 -1 -1 $-1 $35 $36 $16 $-1 $37 forward single T -0.08199999999999999 -0.032000000000000001 0.19999999999999998 -0.031999999999999987 0.032000000000000001 0.26400000000000001 F #
string_attrib-name_attrib-gen-attrib $-1 -1 $38 $17 $0 2 1 1 1 1 1 1 1 1 1 1 1 1 1 0 1 1 1 @10 NameOfBody @0  #
render-rbase-attrib $-1 -1 $39 $-1 $18 1 1 1 1 1 1 1 1 1 1 1 1 0 1 0 1 1 1 $40 $-1 0 1 1 0 0 0 1 0 0 0 1 0 0 0 1 no_rotate no_reflect no_shear #
face $41 -1 -1 $-1 $42 $43 $12 $-1 $44 forward single T -0.01 -0.01 0 0.01 0.01 0 F #
loop $-1 -1 -1 $-1 $45 $46 $18 T -0.01 -0.01 0 0.01 0.01 0 unknown #
cone-surface $-1 -1 -1 $-1 0 0 0.10000000000000001 0 0 1 0.01 0 0 1 I I 0 1 0.01 forward I I I I #
string_attrib-name_attrib-gen-attrib $-1 -1 $47 $19 $1 2 1 1 1 1 1 1 1 1 1 1 1 1 1 0 1 1 1 @10 NameOfBody @0  #
render-rbase-attrib $-1 -1 $48 $-1 $20 1 1 1 1 1 1 1 1 1 1 1 1 0 1 0 1 1 1 $49 $-1 0 0 #
face $50 -1 -1 $-1 $51 $52 $14 $-1 $53 reversed single T -0.032000000000000001 -0.032000000000000001 0.20000000000000001 0.032000000000000001 0.032000000000000001 0.20000000000000001 F #
loop $-1 -1 -1 $-1 $-1 $54 $20 T -0.032000000000000001 -0.032000000000000001 0.26400000000000001 0.032000000000000001 0.032000000000000001 0.26400000000000001 unknown #
plane-surface $-1 -1 -1 $-1 0 0 0.26400000000000001 0 0 1 1 0 0 forward_v I I I I #
string_attrib-name_attrib-gen-attrib $-1 -1 $55 $21 $2 2 1 1 1 1 1 1 1 1 1 1 1 1 1 0 1 1 1 @10 NameOfBody @0  #
render-rbase-attrib $-1 -1 $56 $-1 $22 1 1 1 1 1 1 1 1 1 1 1 1 0 1 0 1 1 1 $57 $-1 0 1 0 0 -1 -0 1 0 1 0 0 -0.23199984651129063 0 0.23199972779677971 1 rotate no_reflect no_shear #
face $58 -1 -1 $-1 $59 $60 $16 $-1 $61 forward single T -0.08199999999999999 -0.032000000000000001 0.19999999999999998 -0.08199999999999999 0.032000000000000001 0.26400000000000001 F #
loop $-1 -1 -1 $-1 $62 $63 $22 T -0.08199999999999999 -0.032000000000000001 0.19999999999999998 -0.08199999999999999 0.032000000000000001 0.26400000000000001 unknown #
cone-surface $-1 -1 -1 $-1 -0.056999999999999995 1.2474149864061998e-18 0.23199999999999998 1 0 0 0 0.032000000000000001 0 1 I I 0 1 0.032000000000000001 forward I I I I #
render-rbase-attrib $-1 -1 $64 $23 $0 1 1 1 1 1 1 1 1 1 1 1 1 0 1 0 1 1 1 $65 $-1 0 1 1 0 0 0 1 0 0 0 1 0 0 0 1 no_rotate no_reflect no_shear #
rgb_color-st-attrib $-1 -1 $66 $24 $18 2 1 2 1 1 1 1 1 1 1 1 1 1 1 0 1 1 1 0.49803921568627452 0.49803921568627452 0.49803921568627452 #
rh_material-rh_entity $-1 -1 4 5 @5 plain @5 color -4 0.49803921568627452 0.49803921568627452 0.49803921568627452 @5 phong @14 ambient factor -2 1 @14 diffuse factor -2 1 @15 specular factor -2 0.75 @8 exponent -2 30 @14 specular color -4 1 1 1 @4 none @5 plain @5 color -4 1 1 1 #
render-rbase-attrib $-1 -1 $67 $-1 $25 1 1 1 1 1 1 1 1 1 1 1 1 0 1 0 1 1 1 $68 $-1 0 1 1 0 0 0 1 0 0 0 1 0 0 0 1 no_rotate no_reflect no_shear #
face $69 -1 -1 $-1 $-1 $70 $12 $-1 $71 forward single T -0.01 -0.01 0.20000000000000001 0.01 0.01 0.20000000000000001 F #
loop $-1 -1 -1 $-1 $-1 $72 $25 T -0.01 -0.01 0 0.01 0.01 0 unknown #
plane-surface $-1 -1 -1 $-1 0 0 0 0 0 -1 -1 0 0 forward_v I I I I #
loop $-1 -1 -1 $-1 $-1 $73 $18 T -0.01 -0.01 0.20000000000000001 0.01 0.01 0.20000000000000001 unknown #
coedge $-1 -1 -1 $-1 $46 $46 $72 $74 reversed $26 $-1 #
render-rbase-attrib $-1 -1 $75 $28 $1 1 1 1 1 1 1 1 1 1 1 1 1 0 1 0 1 1 1 $76 $-1 0 1 1 0 0 0 1 0 0 0 1 -0.032000000000000001 -0.032000000000000001 0.20000000000000001 1 no_rotate no_reflect no_shear #
rgb_color-st-attrib $-1 -1 $77 $29 $20 2 1 2 1 1 1 1 1 1 1 1 1 1 1 0 1 1 1 0.49803921568627452 0.49803921568627452 0.49803921568627452 #
rh_material-rh_entity $-1 -1 4 5 @5 plain @5 color -4 0.49803921568627452 0.49803921568627452 0.49803921568627452 @5 phong @14 ambient factor -2 1 @14 diffuse factor -2 1 @15 specular factor -2 0.75 @8 exponent -2 30 @14 specular color -4 1 1 1 @4 none @5 plain @5 color -4 1 1 1 #
render-rbase-attrib $-1 -1 $78 $-1 $30 1 1 1 1 1 1 1 1 1 1 1 1 0 1 0 1 1 1 $79 $-1 0 0 #
face $80 -1 -1 $-1 $81 $82 $14 $-1 $83 reversed single T -0.032000000000000001 -0.032000000000000001 0.20000000000000001 0.032000000000000001 -0.032000000000000001 0.26400000000000001 F #
loop $-1 -1 -1 $-1 $-1 $84 $30 T -0.032000000000000001 -0.032000000000000001 0.20000000000000001 0.032000000000000001 0.032000000000000001 0.20000000000000001 unknown #
plane-surface $-1 -1 -1 $-1 0 0 0.20000000000000001 0 0 1 1 0 0 forward_v I I I I #
coedge $-1 -1 -1 $-1 $85 $86 $87 $88 forward $31 $-1 #
string_attrib-name_attrib-gen-attrib $-1 -1 $89 $33 $2 2 1 1 1 1 1 1 1 1 1 1 1 1 1 0 1 1 1 @10 NameOfBody @0  #
rgb_color-st-attrib $-1 -1 $90 $34 $22 2 1 2 1 1 1 1 1 1 1 1 1 1 1 0 1 1 1 0.49803921568627452 0.49803921568627452 0.49803921568627452 #
rh_material-rh_entity $-1 -1 4 5 @5 plain @5 color -4 0.49803921568627452 0.49803921568627452 0.49803921568627452 @5 phong @14 ambient factor -2 1 @14 diffuse factor -2 1 @15 specular factor -2 0.75 @8 exponent -2 30 @14 specular color -4 1 1 1 @4 none @5 plain @5 color -4 1 1 1 #
render-rbase-attrib $-1 -1 $91 $-1 $35 1 1 1 1 1 1 1 1 1 1 1 1 0 1 0 1 1 1 $92 $-1 0 1 0 0 -1 -0 1 0 1 0 0 -0.23199984651129063 0 0.23199972779677971 1 rotate no_reflect no_shear #
face $93 -1 -1 $-1 $-1 $94 $16 $-1 $95 forward single T -0.031999999999999987 -0.032000000000000001 0.19999999999999998 -0.031999999999999987 0.032000000000000001 0.26400000000000001 F #
loop $-1 -1 -1 $-1 $-1 $96 $35 T -0.08199999999999999 -0.032000000000000001 0.19999999999999998 -0.08199999999999999 0.032000000000000001 0.26400000000000001 unknown #
plane-surface $-1 -1 -1 $-1 -0.08199999999999999 1.2474149864061998e-18 0.23199999999999998 -1 0 0 0 -1 0 forward_v I I I I #
loop $-1 -1 -1 $-1 $-1 $97 $22 T -0.031999999999999987 -0.032000000000000001 0.19999999999999998 -0.031999999999999987 0.032000000000000001 0.26400000000000001 unknown #
coedge $-1 -1 -1 $-1 $63 $63 $96 $98 reversed $36 $-1 #
string_attrib-name_attrib-gen-attrib $-1 -1 $-1 $38 $0 2 1 1 1 1 1 1 1 1 1 1 1 1 1 0 1 1 1 @10 NameOfBody @0  #
rh_material-rh_entity $-1 -1 4 5 @5 plain @5 color -4 0.49803921568627452 0.49803921568627452 0.49803921568627452 @5 phong @14 ambient factor -2 1 @14 diffuse factor -2 1 @15 specular factor -2 0.75 @8 exponent -2 30 @14 specular color -4 1 1 1 @4 none @5 plain @5 color -4 1 1 1 #
integer_attrib-name_attrib-gen-attrib $-1 -1 $-1 $39 $18 2 1 1 1 1 1 1 1 1 1 1 1 1 1 0 1 1 1 @15 PersistentGfxID 1 #
rgb_color-st-attrib $-1 -1 $99 $41 $25 2 1 2 1 1 1 1 1 1 1 1 1 1 1 0 1 1 1 0.49803921568627452 0.49803921568627452 0.49803921568627452 #
rh_material-rh_entity $-1 -1 4 5 @5 plain @5 color -4 0.49803921568627452 0.49803921568627452 0.49803921568627452 @5 phong @14 ambient factor -2 1 @14 diffuse factor -2 1 @15 specular factor -2 0.75 @8 exponent -2 30 @14 specular color -4 1 1 1 @4 none @5 plain @5 color -4 1 1 1 #
render-rbase-attrib $-1 -1 $100 $-1 $42 1 1 1 1 1 1 1 1 1 1 1 1 0 1 0 1 1 1 $101 $-1 0 1 1 0 0 0 1 0 0 0 1 0 0 0 1 no_rotate no_reflect no_shear #
loop $-1 -1 -1 $-1 $-1 $102 $42 T -0.01 -0.01 0.20000000000000001 0.01 0.01 0.20000000000000001 unknown #
plane-surface $-1 -1 -1 $-1 0 0 0.20000000000000001 0 0 1 1 0 0 forward_v I I I I #
coedge $-1 -1 -1 $-1 $72 $72 $46 $74 forward $43 $-1 #
coedge $-1 -1 -1 $-1 $73 $73 $102 $103 reversed $45 $-1 #
edge $-1 -1 -1 $-1 $104 0 $104 6.2831853071795862 $72 $105 forward @7 unknown T -0.01 -0.01 0 0.01 0.01 0 #
string_attrib-name_attrib-gen-attrib $-1 -1 $-1 $47 $1 2 1 1 1 1 1 1 1 1 1 1 1 1 1 0 1 1 1 @10 NameOfBody @0  #
rh_material-rh_entity $-1 -1 4 5 @5 plain @5 color -4 0.49803921568627452 0.49803921568627452 0.49803921568627452 @5 phong @14 ambient factor -2 1 @14 diffuse factor -2 1 @15 specular factor -2 0.75 @8 exponent -2 30 @14 specular color -4 1 1 1 @4 none @5 plain @5 color -4 1 1 1 #
integer_attrib-name_attrib-gen-attrib $-1 -1 $-1 $48 $20 2 1 1 1 1 1 1 1 1 1 1 1 1 1 0 1 1 1 @15 PersistentGfxID 5 #
rgb_color-st-attrib $-1 -1 $106 $50 $30 2 1 2 1 1 1 1 1 1 1 1 1 1 1 0 1 1 1 0.49803921568627452 0.49803921568627452 0.49803921568627452 #
rh_material-rh_entity $-1 -1 4 5 @5 plain @5 color -4 0.49803921568627452 0.49803921568627452 0.49803921568627452 @5 phong @14 ambient factor -2 1 @14 diffuse factor -2 1 @15 specular factor -2 0.75 @8 exponent -2 30 @14 specular color -4 1 1 1 @4 none @5 plain @5 color -4 1 1 1 #
render-rbase-attrib $-1 -1 $107 $-1 $51 1 1 1 1 1 1 1 1 1 1 1 1 0 1 0 1 1 1 $108 $-1 0 0 #
face $109 -1 -1 $-1 $110 $111 $14 $-1 $112 reversed single T -0.032000000000000001 -0.032000000000000001 0.20000000000000001 -0.032000000000000001 0.032000000000000001 0.26400000000000001 F #
loop $-1 -1 -1 $-1 $-1 $113 $51 T -0.032000000000000001 -0.032000000000000001 0.20000000000000001 0.032000000000000001 -0.032000000000000001 0.26400000000000001 unknown #
plane-surface $-1 -1 -1 $-1 0 -0.032000000000000001 0.23200000000000001 0 1 0 0 0 1 forward_v I I I I #
coedge $-1 -1 -1 $-1 $114 $115 $116 $117 forward $52 $-1 #
coedge $-1 -1 -1 $-1 $118 $54 $119 $120 forward $31 $-1 #
coedge $-1 -1 -1 $-1 $54 $118 $121 $122 forward $31 $-1 #
coedge $-1 -1 -1 $-1 $123 $124 $54 $88 reversed $125 $-1 #
edge $-1 -1 -1 $-1 $126 -0.032000000000000001 $127 0.032000000000000001 $87 $128 forward @7 unknown T 0.032000000000000001 -0.032000000000000001 0.26400000000000001 0.032000000000000001 0.032000000000000001 0.26400000000000001 #
render-rbase-attrib $-1 -1 $129 $55 $2 1 1 1 1 1 1 1 1 1 1 1 1 0 1 0 1 1 1 $130 $-1 0 1 1 0 0 -0 0 1 0 -1 0 0 0.12465109283220599 0.19958452752686218 1 rotate no_reflect no_shear #
integer_attrib-name_attrib-gen-attrib $-1 -1 $-1 $56 $22 2 1 1 1 1 1 1 1 1 1 1 1 1 1 0 1 1 1 @15 PersistentGfxID 1 #
rgb_color-st-attrib $-1 -1 $131 $58 $35 2 1 2 1 1 1 1 1 1 1 1 1 1 1 0 1 1 1 0.49803921568627452 0.49803921568627452 0.49803921568627452 #
rh_material-rh_entity $-1 -1 4 5 @5 plain @5 color -4 0.49803921568627452 0.49803921568627452 0.49803921568627452 @5 phong @14 ambient factor -2 1 @14 diffuse factor -2 1 @15 specular factor -2 0.75 @8 exponent -2 30 @14 specular color -4 1 1 1 @4 none @5 plain @5 color -4 1 1 1 #
render-rbase-attrib $-1 -1 $132 $-1 $59 1 1 1 1 1 1 1 1 1 1 1 1 0 1 0 1 1 1 $133 $-1 0 1 0 0 -1 -0 1 0 1 0 0 -0.23199984651129063 0 0.23199972779677971 1 rotate no_reflect no_shear #
loop $-1 -1 -1 $-1 $-1 $134 $59 T -0.031999999999999987 -0.032000000000000001 0.19999999999999998 -0.031999999999999987 0.032000000000000001 0.26400000000000001 unknown #
plane-surface $-1 -1 -1 $-1 -0.031999999999999987 1.2474149864061998e-18 0.23199999999999998 1 0 0 0 1 0 forward_v I I I I #
coedge $-1 -1 -1 $-1 $96 $96 $63 $98 forward $60 $-1 #
coedge $-1 -1 -1 $-1 $97 $97 $134 $135 reversed $62 $-1 #
edge $-1 -1 -1 $-1 $136 0 $136 6.2831853071795862 $96 $137 forward @7 unknown T -0.08199999999999999 -0.032000000000000001 0.19999999999999998 -0.08199999999999999 0.032000000000000001 0.26400000000000001 #
integer_attrib-name_attrib-gen-attrib $-1 -1 $-1 $67 $25 2 1 1 1 1 1 1 1 1 1 1 1 1 1 0 1 1 1 @15 PersistentGfxID 2 #
rgb_color-st-attrib $-1 -1 $138 $69 $42 2 1 2 1 1 1 1 1 1 1 1 1 1 1 0 1 1 1 0.49803921568627452 0.49803921568627452 0.49803921568627452 #
rh_material-rh_entity $-1 -1 4 5 @5 plain @5 color -4 0.49803921568627452 0.49803921568627452 0.49803921568627452 @5 phong @14 ambient factor -2 1 @14 diffuse factor -2 1 @15 specular factor -2 0.75 @8 exponent -2 30 @14 specular color -4 1 1 1 @4 none @5 plain @5 color -4 1 1 1 #
coedge $-1 -1 -1 $-1 $102 $102 $73 $103 forward $70 $-1 #
edge $-1 -1 -1 $-1 $139 0 $139 6.2831853071795862 $102 $140 forward @7 unknown T -0.01 -0.01 0.20000000000000001 0.01 0.01 0.20000000000000001 #
vertex $-1 -1 -1 $-1 $74 $141 #
ellipse-curve $-1 -1 -1 $-1 0 0 0 0 0 -1 0.01 0 0 1 I I #
integer_attrib-name_attrib-gen-attrib $-1 -1 $-1 $78 $30 2 1 1 1 1 1 1 1 1 1 1 1 1 1 0 1 1 1 @15 PersistentGfxID 6 #
rgb_color-st-attrib $-1 -1 $142 $80 $51 2 1 2 1 1 1 1 1 1 1 1 1 1 1 0 1 1 1 0.49803921568627452 0.49803921568627452 0.49803921568627452 #
rh_material-rh_entity $-1 -1 4 5 @5 plain @5 color -4 0.49803921568627452 0.49803921568627452 0.49803921568627452 @5 phong @14 ambient factor -2 1 @14 diffuse factor -2 1 @15 specular factor -2 0.75 @8 exponent -2 30 @14 specular color -4 1 1 1 @4 none @5 plain @5 color -4 1 1 1 #
render-rbase-attrib $-1 -1 $143 $-1 $81 1 1 1 1 1 1 1 1 1 1 1 1 0 1 0 1 1 1 $144 $-1 0 0 #
face $145 -1 -1 $-1 $146 $147 $14 $-1 $148 reversed single T -0.032000000000000001 0.032000000000000001 0.20000000000000001 0.032000000000000001 0.032000000000000001 0.26400000000000001 F #
loop $-1 -1 -1 $-1 $-1 $149 $81 T -0.032000000000000001 -0.032000000000000001 0.20000000000000001 -0.032000000000000001 0.032000000000000001 0.26400000000000001 unknown #
plane-surface $-1 -1 -1 $-1 -0.032000000000000001 0 0.23200000000000001 1 0 0 0 0 -1 forward_v I I I I #
coedge $-1 -1 -1 $-1 $150 $121 $151 $152 forward $82 $-1 #
coedge $-1 -1 -1 $-1 $153 $84 $150 $154 forward $52 $-1 #
coedge $-1 -1 -1 $-1 $84 $153 $155 $156 forward $52 $-1 #
coedge $-1 -1 -1 $-1 $124 $123 $84 $117 reversed $125 $-1 #
edge $-1 -1 -1 $-1 $157 -0.032000000000000001 $158 0.032000000000000001 $116 $159 forward @7 unknown T 0.032000000000000001 -0.032000000000000001 0.20000000000000001 0.032000000000000001 0.032000000000000001 0.20000000000000001 #
coedge $-1 -1 -1 $-1 $86 $85 $160 $161 forward $31 $-1 #
coedge $-1 -1 -1 $-1 $162 $163 $85 $120 reversed $147 $-1 #
edge $-1 -1 -1 $-1 $127 -0.032000000000000001 $164 0.032000000000000001 $119 $165 forward @7 unknown T -0.032000000000000001 0.032000000000000001 0.26400000000000001 0.032000000000000001 0.032000000000000001 0.26400000000000001 #
coedge $-1 -1 -1 $-1 $113 $166 $86 $122 reversed $82 $-1 #
edge $-1 -1 -1 $-1 $167 -0.032000000000000001 $126 0.032000000000000001 $121 $168 forward @7 unknown T -0.032000000000000001 -0.032000000000000001 0.26400000000000001 0.032000000000000001 -0.032000000000000001 0.26400000000000001 #
coedge $-1 -1 -1 $-1 $116 $87 $166 $169 forward $125 $-1 #
coedge $-1 -1 -1 $-1 $87 $116 $162 $170 reversed $125 $-1 #
loop $-1 -1 -1 $-1 $-1 $123 $146 T 0.032000000000000001 -0.032000000000000001 0.20000000000000001 0.032000000000000001 0.032000000000000001 0.26400000000000001 unknown #
vertex $-1 -1 -1 $-1 $88 $171 #
vertex $-1 -1 -1 $-1 $88 $172 #
straight-curve $-1 -1 -1 $-1 0.032000000000000001 0 0.26400000000000001 0 1 0 I I #
string_attrib-name_attrib-gen-attrib $-1 -1 $-1 $89 $2 2 1 1 1 1 1 1 1 1 1 1 1 1 1 0 1 1 1 @10 NameOfBody @0  #
rh_material-rh_entity $-1 -1 4 5 @5 plain @5 color -4 0.49803921568627452 0.49803921568627452 0.49803921568627452 @5 phong @14 ambient factor -2 1 @14 diffuse factor -2 1 @15 specular factor -2 0.75 @8 exponent -2 30 @14 specular color -4 1 1 1 @4 none @5 plain @5 color -4 1 1 1 #
integer_attrib-name_attrib-gen-attrib $-1 -1 $-1 $91 $35 2 1 1 1 1 1 1 1 1 1 1 1 1 1 0 1 1 1 @15 PersistentGfxID 2 #
rgb_color-st-attrib $-1 -1 $173 $93 $59 2 1 2 1 1 1 1 1 1 1 1 1 1 1 0 1 1 1 0.49803921568627452 0.49803921568627452 0.49803921568627452 #
rh_material-rh_entity $-1 -1 4 5 @5 plain @5 color -4 0.49803921568627452 0.49803921568627452 0.49803921568627452 @5 phong @14 ambient factor -2 1 @14 diffuse factor -2 1 @15 specular factor -2 0.75 @8 exponent -2 30 @14 specular color -4 1 1 1 @4 none @5 plain @5 color -4 1 1 1 #
coedge $-1 -1 -1 $-1 $134 $134 $97 $135 forward $94 $-1 #
edge $-1 -1 -1 $-1 $174 0 $174 6.2831853071795862 $134 $175 forward @7 unknown T -0.031999999999999987 -0.032000000000000001 0.19999999999999998 -0.031999999999999987 0.032000000000000001 0.26400000000000001 #
vertex $-1 -1 -1 $-1 $98 $176 #
ellipse-curve $-1 -1 -1 $-1 -0.08199999999999999 1.2474149864061998e-18 0.23199999999999998 -1 0 0 0 0.032000000000000001 0 1 I I #
integer_attrib-name_attrib-gen-attrib $-1 -1 $-1 $100 $42 2 1 1 1 1 1 1 1 1 1 1 1 1 1 0 1 1 1 @15 PersistentGfxID 3 #
vertex $-1 -1 -1 $-1 $103 $177 #
ellipse-curve $-1 -1 -1 $-1 0 0 0.20000000000000001 0 0 1 0.01 0 0 1 I I #
point $-1 -1 -1 $-1 0.01 0 0 #
integer_attrib-name_attrib-gen-attrib $-1 -1 $-1 $107 $51 2 1 1 1 1 1 1 1 1 1 1 1 1 1 0 1 1 1 @15 PersistentGfxID 7 #
rgb_color-st-attrib $-1 -1 $178 $109 $81 2 1 2 1 1 1 1 1 1 1 1 1 1 1 0 1 1 1 0.49803921568627452 0.49803921568627452 0.49803921568627452 #
rh_material-rh_entity $-1 -1 4 5 @5 plain @5 color -4 0.49803921568627452 0.49803921568627452 0.49803921568627452 @5 phong @14 ambient factor -2 1 @14 diffuse factor -2 1 @15 specular factor -2 0.75 @8 exponent -2 30 @14 specular color -4 1 1 1 @4 none @5 plain @5 color -4 1 1 1 #
render-rbase-attrib $-1 -1 $179 $-1 $110 1 1 1 1 1 1 1 1 1 1 1 1 0 1 0 1 1 1 $180 $-1 0 0 #
face $181 -1 -1 $-1 $-1 $125 $14 $-1 $182 reversed single T 0.032000000000000001 -0.032000000000000001 0.20000000000000001 0.032000000000000001 0.032000000000000001 0.26400000000000001 F #
loop $-1 -1 -1 $-1 $-1 $162 $110 T -0.032000000000000001 0.032000000000000001 0.20000000000000001 0.032000000000000001 0.032000000000000001 0.26400000000000001 unknown #
plane-surface $-1 -1 -1 $-1 0 0.032000000000000001 0.23200000000000001 0 -1 0 0 0 -1 forward_v I I I I #
coedge $-1 -1 -1 $-1 $183 $160 $163 $184 forward $111 $-1 #
coedge $-1 -1 -1 $-1 $166 $113 $114 $154 reversed $82 $-1 #
coedge $-1 -1 -1 $-1 $160 $183 $113 $152 reversed $111 $-1 #
edge $-1 -1 -1 $-1 $167 -0.032000000000000001 $185 0.032000000000000001 $151 $186 forward @7 unknown T -0.032000000000000001 -0.032000000000000001 0.20000000000000001 -0.032000000000000001 -0.032000000000000001 0.26400000000000001 #
coedge $-1 -1 -1 $-1 $115 $114 $183 $187 forward $52 $-1 #
edge $-1 -1 -1 $-1 $158 -0.032000000000000001 $185 0.032000000000000001 $150 $188 forward @7 unknown T -0.032000000000000001 -0.032000000000000001 0.20000000000000001 0.032000000000000001 -0.032000000000000001 0.20000000000000001 #
coedge $-1 -1 -1 $-1 $163 $162 $115 $156 reversed $147 $-1 #
edge $-1 -1 -1 $-1 $189 -0.032000000000000001 $157 0.032000000000000001 $155 $190 forward @7 unknown T -0.032000000000000001 0.032000000000000001 0.20000000000000001 0.032000000000000001 0.032000000000000001 0.20000000000000001 #
vertex $-1 -1 -1 $-1 $117 $191 #
vertex $-1 -1 -1 $-1 $169 $192 #
straight-curve $-1 -1 -1 $-1 0.032000000000000001 0 0.20000000000000001 0 -1 0 I I #
coedge $-1 -1 -1 $-1 $149 $151 $118 $161 reversed $111 $-1 #
edge $-1 -1 -1 $-1 $164 -0.032000000000000001 $167 0.032000000000000001 $160 $193 forward @7 unknown T -0.032000000000000001 -0.032000000000000001 0.26400000000000001 -0.032000000000000001 0.032000000000000001 0.26400000000000001 #
coedge $-1 -1 -1 $-1 $155 $119 $124 $170 forward $147 $-1 #
coedge $-1 -1 -1 $-1 $119 $155 $149 $184 reversed $147 $-1 #
vertex $-1 -1 -1 $-1 $120 $194 #
straight-curve $-1 -1 -1 $-1 0 0.032000000000000001 0.26400000000000001 -1 0 0 I I #
coedge $-1 -1 -1 $-1 $121 $150 $123 $169 reversed $82 $-1 #
vertex $-1 -1 -1 $-1 $161 $195 #
straight-curve $-1 -1 -1 $-1 0 -0.032000000000000001 0.26400000000000001 1 0 0 I I #
edge $-1 -1 -1 $-1 $126 -0.032000000000000001 $158 0.032000000000000001 $123 $196 forward @7 unknown T 0.032000000000000001 -0.032000000000000001 0.20000000000000001 0.032000000000000001 -0.032000000000000001 0.26400000000000001 #
edge $-1 -1 -1 $-1 $127 -0.032000000000000001 $157 0.032000000000000001 $124 $197 forward @7 unknown T 0.032000000000000001 0.032000000000000001 0.20000000000000001 0.032000000000000001 0.032000000000000001 0.26400000000000001 #
point $-1 -1 -1 $-1 0.032000000000000001 -0.032000000000000001 0.26400000000000001 #
point $-1 -1 -1 $-1 0.032000000000000001 0.032000000000000001 0.26400000000000001 #
integer_attrib-name_attrib-gen-attrib $-1 -1 $-1 $132 $59 2 1 1 1 1 1 1 1 1 1 1 1 1 1 0 1 1 1 @15 PersistentGfxID 3 #
vertex $-1 -1 -1 $-1 $135 $198 #
ellipse-curve $-1 -1 -1 $-1 -0.031999999999999987 1.2474149864061998e-18 0.23199999999999998 1 0 0 0 0.032000000000000001 0 1 I I #
point $-1 -1 -1 $-1 -0.08199999999999999 0.032000000000000001 0.23199999999999998 #
point $-1 -1 -1 $-1 0.01 0 0.20000000000000001 #
integer_attrib-name_attrib-gen-attrib $-1 -1 $-1 $143 $81 2 1 1 1 1 1 1 1 1 1 1 1 1 1 0 1 1 1 @15 PersistentGfxID 8 #
rgb_color-st-attrib $-1 -1 $199 $145 $110 2 1 2 1 1 1 1 1 1 1 1 1 1 1 0 1 1 1 0.49803921568627452 0.49803921568627452 0.49803921568627452 #
rh_material-rh_entity $-1 -1 4 5 @5 plain @5 color -4 0.49803921568627452 0.49803921568627452 0.49803921568627452 @5 phong @14 ambient factor -2 1 @14 diffuse factor -2 1 @15 specular factor -2 0.75 @8 exponent -2 30 @14 specular color -4 1 1 1 @4 none @5 plain @5 color -4 1 1 1 #
render-rbase-attrib $-1 -1 $200 $-1 $146 1 1 1 1 1 1 1 1 1 1 1 1 0 1 0 1 1 1 $201 $-1 0 0 #
plane-surface $-1 -1 -1 $-1 0.032000000000000001 0 0.23200000000000001 -1 0 0 0 0 1 forward_v I I I I #
coedge $-1 -1 -1 $-1 $151 $149 $153 $187 reversed $111 $-1 #
edge $-1 -1 -1 $-1 $164 -0.032000000000000001 $189 0.032000000000000001 $163 $202 forward @7 unknown T -0.032000000000000001 0.032000000000000001 0.20000000000000001 -0.032000000000000001 0.032000000000000001 0.26400000000000001 #
vertex $-1 -1 -1 $-1 $187 $203 #
straight-curve $-1 -1 -1 $-1 -0.032000000000000001 -0.032000000000000001 0.23200000000000001 0 0 -1 I I #
edge $-1 -1 -1 $-1 $185 -0.032000000000000001 $189 0.032000000000000001 $183 $204 forward @7 unknown T -0.032000000000000001 -0.032000000000000001 0.20000000000000001 -0.032000000000000001 0.032000000000000001 0.20000000000000001 #
straight-curve $-1 -1 -1 $-1 0 -0.032000000000000001 0.20000000000000001 -1 0 0 I I #
vertex $-1 -1 -1 $-1 $156 $205 #
straight-curve $-1 -1 -1 $-1 0 0.032000000000000001 0.20000000000000001 1 0 0 I I #
point $-1 -1 -1 $-1 0.032000000000000001 0.032000000000000001 0.20000000000000001 #
point $-1 -1 -1 $-1 0.032000000000000001 -0.032000000000000001 0.20000000000000001 #
straight-curve $-1 -1 -1 $-1 -0.032000000000000001 0 0.26400000000000001 0 -1 0 I I #
point $-1 -1 -1 $-1 -0.032000000000000001 0.032000000000000001 0.26400000000000001 #
point $-1 -1 -1 $-1 -0.032000000000000001 -0.032000000000000001 0.26400000000000001 #
straight-curve $-1 -1 -1 $-1 0.032000000000000001 -0.032000000000000001 0.23200000000000001 0 0 -1 I I #
straight-curve $-1 -1 -1 $-1 0.032000000000000001 0.032000000000000001 0.23200000000000001 0 0 -1 I I #
point $-1 -1 -1 $-1 -0.031999999999999987 0.032000000000000001 0.23199999999999998 #
integer_attrib-name_attrib-gen-attrib $-1 -1 $-1 $179 $110 2 1 1 1 1 1 1 1 1 1 1 1 1 1 0 1 1 1 @15 PersistentGfxID 9 #
rgb_color-st-attrib $-1 -1 $206 $181 $146 2 1 2 1 1 1 1 1 1 1 1 1 1 1 0 1 1 1 0.49803921568627452 0.49803921568627452 0.49803921568627452 #
rh_material-rh_entity $-1 -1 4 5 @5 plain @5 color -4 0.49803921568627452 0.49803921568627452 0.49803921568627452 @5 phong @14 ambient factor -2 1 @14 diffuse factor -2 1 @15 specular factor -2 0.75 @8 exponent -2 30 @14 specular color -4 1 1 1 @4 none @5 plain @5 color -4 1 1 1 #
straight-curve $-1 -1 -1 $-1 -0.032000000000000001 0.032000000000000001 0.23200000000000001 0 0 -1 I I #
point $-1 -1 -1 $-1 -0.032000000000000001 -0.032000000000000001 0.20000000000000001 #
straight-curve $-1 -1 -1 $-1 -0.032000000000000001 0 0.20000000000000001 0 1 0 I I #
point $-1 -1 -1 $-1 -0.032000000000000001 0.032000000000000001 0.20000000000000001 #
integer_attrib-name_attrib-gen-attrib $-1 -1 $-1 $200 $146 2 1 1 1 1 1 1 1 1 1 1 1 1 1 0 1 1 1 @15 PersistentGfxID 10 #
End-of-ACIS-data 