1600 0 1 0           
15 RobotStudioIRC5 14 ACIS 23.0.1 NT 24 Sun Jun 09 19:18:08 2019 
1000 1e-008 1e-010 
body $1 -1 -1 $-1 $2 $-1 $-1 T 0.71481150344736988 -0.058056867108869994 -1.7347234759768071e-018 1.01 0.018444614251832945 0.095000000000000001 #
render-rbase-attrib $-1 -1 $3 $-1 $0 1 1 1 1 1 1 1 1 1 1 1 1 0 1 0 1 1 1 $4 $-1 0 0 #
lump $5 -1 -1 $-1 $-1 $6 $0 T 0.71481150344736988 -0.058056867108869994 -1.7347234759768071e-018 1.01 0.018444614251832945 0.095000000000000001 #
rgb_color-st-attrib $-1 -1 $7 $1 $0 2 1 2 1 1 1 1 1 1 1 1 1 1 1 0 1 1 1 0.82352941176470584 0.82352941176470584 1 #
rh_material-rh_entity $-1 -1 4 5 @5 plain @5 color -4 0.82352941176470584 0.82352941176470584 1 @5 phong @14 ambient factor -2 1 @14 diffuse factor -2 1 @15 specular factor -2 0.75 @8 exponent -2 30 @14 specular color -4 1 1 1 @4 none @5 plain @5 color -4 1 1 1 #
integer_attrib-name_attrib-gen-attrib $-1 -1 $-1 $-1 $2 2 1 2 1 1 1 1 1 1 1 1 1 1 1 0 1 1 1 @17 ATTRIB_XACIS_PICK 0 #
shell $-1 -1 -1 $-1 $-1 $-1 $8 $-1 $2 T 0.71481150344736988 -0.058056867108869994 -1.7347234759768071e-018 1.01 0.018444614251832945 0.095000000000000001 #
string_attrib-name_attrib-gen-attrib $-1 -1 $9 $3 $0 2 1 2 1 1 1 1 1 1 1 1 1 1 1 0 1 1 1 @17 ATTRIB_XACIS_NAME @26 weld|JoinedShell.1|Split.1 #
face $10 -1 -1 $-1 $11 $12 $6 $-1 $13 forward single T 0.71481150344736988 -0.058056867108869994 0 1.0099999999999998 0.01022170209505 0.095000000000000001 T 0.17021276595745 75.170212765957444 0 290.62048737908913 #
string_attrib-name_attrib-gen-attrib $-1 -1 $14 $7 $0 2 1 2 1 1 1 1 1 1 1 1 1 1 1 0 1 1 1 @23 ATTRIB_XACIS_LAYER_NAME @1 0 #
string_attrib-name_attrib-gen-attrib $-1 -1 $15 $-1 $8 2 1 2 1 1 1 1 1 1 1 1 1 1 1 0 1 1 1 @17 ATTRIB_XACIS_NAME @13 JoinedShell.1 #
face $16 -1 -1 $-1 $17 $18 $6 $-1 $19 reversed single T 0.99999999999999989 -0.0050000000000000001 0.0099999999999999985 1 0.0050000000000000001 0.085000000000000006 F #
loop $20 -1 -1 $-1 $-1 $21 $8 T 0.71481150344736988 -0.058056867108869994 0 1.0099999999999998 0.01022170209505 0.095000000000000001 unknown #
spline-surface $-1 -1 -1 $-1 forward { exactsur full nubs 3 3 open open none none 2 9 
	0.17021276595745 3 75.170212765957444 3 
	0 3 39.632274996752777 1 75.997852647920425 1 115.52577143950759 1 156.98948227123918 1 
	189.42614855012275 1 222.13588324944757 1 256.04371683513989 1 290.62048737908913 3 
	1 -0.0050000000000000001 0.01 
	1 -0.0050000000000000001 0.035000000000000003 
	1 -0.0050000000000000001 0.059999999999999998 
	1 -0.0050000000000000001 0.085000000000000006 
	0.98681029470091997 -0.00321025940559 0.01 
	0.98681029470091997 -0.00321025940559 0.035000000000000003 
	0.98681029470091997 -0.00321025940559 0.059999999999999998 
	0.98681029470091997 -0.00321025940559 0.085000000000000006 
	0.96151804791794004 0.00022170209504999999 0.01 
	0.96151804791794004 0.00022170209504999999 0.035000000000000003 
	0.96151804791794004 0.00022170209504999999 0.059999999999999998 
	0.96151804791794004 0.00022170209504999999 0.085000000000000006 
	0.92105525895478002 -0.0061808377493400004 0.01 
	0.92105525895478002 -0.0061808377493400004 0.035000000000000003 
	0.92105525895478002 -0.0061808377493400004 0.059999999999999998 
	0.92105525895478002 -0.0061808377493400004 0.085000000000000006 
	0.88708694497913998 -0.027138834729570002 0.01 
	0.88708694497913998 -0.027138834729570002 0.035000000000000003 
	0.88708694497913998 -0.027138834729570002 0.059999999999999998 
	0.88708694497913998 -0.027138834729570002 0.085000000000000006 
	0.85395323124613998 -0.04474814885009 0.01 
	0.85395323124613998 -0.04474814885009 0.035000000000000003 
	0.85395323124613998 -0.04474814885009 0.059999999999999998 
	0.85395323124613998 -0.04474814885009 0.085000000000000006 
	0.81952796416653995 -0.048056867108869999 0.01 
	0.81952796416653995 -0.048056867108869999 0.035000000000000003 
	0.81952796416653995 -0.048056867108869999 0.059999999999999998 
	0.81952796416653995 -0.048056867108869999 0.085000000000000006 
	0.78750851958988011 -0.041814089222200007 0.01 
	0.78750851958988011 -0.041814089222200007 0.035000000000000003 
	0.78750851958988011 -0.041814089222200007 0.059999999999999998 
	0.78750851958988011 -0.041814089222200007 0.085000000000000006 
	0.75611993308933012 -0.030334070880119999 0.01 
	0.75611993308933012 -0.030334070880119999 0.035000000000000003 
	0.75611993308933012 -0.030334070880119999 0.059999999999999998 
	0.75611993308933012 -0.030334070880119999 0.085000000000000006 
	0.73531538418106002 -0.020986969581850003 0.01 
	0.73531538418106002 -0.020986969581850003 0.035000000000000003 
	0.73531538418106002 -0.020986969581850003 0.059999999999999998 
	0.73531538418106002 -0.020986969581850003 0.085000000000000006 
	0.72481150344737 -0.016267769099509999 0.01 
	0.72481150344737 -0.016267769099509999 0.035000000000000003 
	0.72481150344737 -0.016267769099509999 0.059999999999999998 
	0.72481150344737 -0.016267769099509999 0.085000000000000006 
	0 
	0 
	0 
	0 
	0 
	0 
	7 39.632274996752777 75.997852647920425 115.52577143950759 156.98948227123918 189.42614855012275 222.13588324944757 256.04371683513989 
	F 1 F 0 F 1 F 0 } I I I I #
integer_attrib-name_attrib-gen-attrib $-1 -1 $-1 $9 $0 2 1 2 1 1 1 1 1 1 1 1 1 1 1 0 1 1 1 @18 ATTRIB_XACIS_LAYER 0 #
string_attrib-name_attrib-gen-attrib $-1 -1 $22 $10 $8 2 1 2 1 1 1 1 1 1 1 1 1 1 1 0 1 1 1 @23 ATTRIB_XACIS_LAYER_NAME @1 0 #
string_attrib-name_attrib-gen-attrib $-1 -1 $23 $-1 $11 2 1 2 1 1 1 1 1 1 1 1 1 1 1 0 1 1 1 @17 ATTRIB_XACIS_NAME @13 JoinedShell.1 #
face $24 -1 -1 $-1 $25 $26 $6 $-1 $27 forward single T 0.71481150344736988 -0.058056867108869994 0.074999999999999997 1.01 0.018444614251832945 0.095000000000000001 F #
loop $28 -1 -1 $-1 $-1 $29 $11 T 0.99999999999999989 -0.0050000000000000001 0.0099999999999999985 1 0.0050000000000000001 0.085000000000000006 unknown #
plane-surface $-1 -1 -1 $-1 1 -0.074999999999999997 0.01 -1 0 0 0 0.001 0 forward_v I I I I #
integer_attrib-name_attrib-gen-attrib $-1 -1 $-1 $-1 $12 2 1 2 1 1 1 1 1 1 1 1 1 1 1 0 1 1 1 @17 ATTRIB_XACIS_PICK 0 #
coedge $-1 -1 -1 $-1 $30 $31 $29 $32 reversed $12 $33 #
integer_attrib-name_attrib-gen-attrib $-1 -1 $-1 $15 $8 2 1 2 1 1 1 1 1 1 1 1 1 1 1 0 1 1 1 @18 ATTRIB_XACIS_LAYER 0 #
string_attrib-name_attrib-gen-attrib $-1 -1 $34 $16 $11 2 1 2 1 1 1 1 1 1 1 1 1 1 1 0 1 1 1 @23 ATTRIB_XACIS_LAYER_NAME @1 0 #
string_attrib-name_attrib-gen-attrib $-1 -1 $35 $-1 $17 2 1 2 1 1 1 1 1 1 1 1 1 1 1 0 1 1 1 @17 ATTRIB_XACIS_NAME @13 JoinedShell.1 #
face $36 -1 -1 $-1 $37 $38 $6 $-1 $39 forward single T 0.71481150344736999 -0.026267769099510001 -1.7347234759768071e-018 0.73777952136225988 0.0032816219625899958 0.095000000000000001 F #
loop $40 -1 -1 $-1 $-1 $41 $17 T 0.71481150344736988 -0.058056867108869994 0.074999999999999997 1.01 0.018444614251832945 0.095000000000000001 unknown #
plane-surface $-1 -1 -1 $-1 1 -0.0050000000000000001 0.085000000000000006 0 0 1 0.001 0 0 forward_v I I I I #
integer_attrib-name_attrib-gen-attrib $-1 -1 $-1 $-1 $18 2 1 2 1 1 1 1 1 1 1 1 1 1 1 0 1 1 1 @17 ATTRIB_XACIS_PICK 0 #
coedge $-1 -1 -1 $-1 $42 $43 $21 $32 forward $18 $-1 #
coedge $-1 -1 -1 $-1 $44 $21 $45 $46 reversed $12 $47 #
coedge $-1 -1 -1 $-1 $21 $44 $48 $49 forward $12 $50 #
edge $51 -1 -1 $-1 $52 -75.170212765957444 $53 -0.1702127659574571 $21 $54 reversed @7 unknown T 0.99999999999999989 -0.0050000000000000001 0.0099999999999999985 1 -0.0049999999999999984 0.084999999999999992 #
pcurve $-1 -1 -1 $-1 0 forward { exppc nubs 1 open 2 
	0.1702127659574571 1 75.170212765957444 1 
	0.1702127659574571 0 
	75.170212765957444 0 
	0.01 
	-1 
	spline forward { ref 0 } I I I I 
	} 0 0 #
integer_attrib-name_attrib-gen-attrib $-1 -1 $-1 $23 $11 2 1 2 1 1 1 1 1 1 1 1 1 1 1 0 1 1 1 @18 ATTRIB_XACIS_LAYER 0 #
string_attrib-name_attrib-gen-attrib $-1 -1 $55 $24 $17 2 1 2 1 1 1 1 1 1 1 1 1 1 1 0 1 1 1 @23 ATTRIB_XACIS_LAYER_NAME @1 0 #
string_attrib-name_attrib-gen-attrib $-1 -1 $56 $-1 $25 2 1 2 1 1 1 1 1 1 1 1 1 1 1 0 1 1 1 @17 ATTRIB_XACIS_NAME @13 JoinedShell.1 #
face $57 -1 -1 $-1 $58 $59 $6 $-1 $60 forward single T 0.71777952136225986 -0.046855288406965644 -1.7347234759768071e-018 1.01 0.018444614251832945 0.095000000000000001 T 0.35106382978723 75.351063829787236 0 287.63001474400988 #
loop $61 -1 -1 $-1 $-1 $62 $25 T 0.71481150344736999 -0.026267769099510001 -1.7347234759768071e-018 0.73777952136225988 0.0032816219625899958 0.095000000000000001 unknown #
plane-surface $-1 -1 -1 $-1 0.70403537804317007 -0.083113506534209999 0.01 -0.95493910620998956 0.29680179148863989 0 0.00029680179148863989 0.00095493910620998961 0 forward_v I I I I #
integer_attrib-name_attrib-gen-attrib $-1 -1 $-1 $-1 $26 2 1 2 1 1 1 1 1 1 1 1 1 1 1 0 1 1 1 @17 ATTRIB_XACIS_PICK 0 #
coedge $-1 -1 -1 $-1 $63 $45 $43 $64 reversed $26 $-1 #
coedge $-1 -1 -1 $-1 $65 $29 $66 $67 forward $18 $-1 #
coedge $-1 -1 -1 $-1 $29 $65 $41 $64 forward $18 $-1 #
coedge $-1 -1 -1 $-1 $31 $30 $62 $68 forward $12 $69 #
coedge $-1 -1 -1 $-1 $41 $70 $30 $46 forward $26 $-1 #
edge $71 -1 -1 $-1 $72 -290.62048737908913 $52 -3.3542885973687573e-013 $30 $73 reversed @7 unknown T 0.71481150344736988 -0.058056867108869994 0.074999999999999997 1.0099999999999998 0.01022170209505 0.094999999999999987 #
pcurve $-1 -1 -1 $-1 0 forward { exppc nubs 1 open 2 
	3.3542885973687573e-013 1 290.62048737908913 1 
	75.170212765957444 3.3542885973687573e-013 
	75.170212765957444 290.62048737908913 
	0.01 
	-1 
	spline forward { ref 0 } I I I I 
	} 0 0 #
coedge $-1 -1 -1 $-1 $74 $66 $31 $49 reversed $75 $-1 #
edge $76 -1 -1 $-1 $77 -145.3102436890812 $53 145.31024368954445 $31 $78 forward @7 unknown T 0.72481150344737477 -0.048056867108869999 0.0099999999999999933 1 0.00022170209504999999 0.01 #
pcurve $-1 -1 -1 $-1 0 forward { exppc nubs 1 open 2 
	-145.3102436890812 1 145.31024368954445 1 
	0.17021276595745 290.62048737862563 
	0.17021276595745 0 
	0.01 
	-1 
	spline forward { ref 0 } I I I I 
	} 0 0 #
integer_attrib-name_attrib-gen-attrib $-1 -1 $-1 $-1 $32 2 1 2 1 1 1 1 1 1 1 1 1 1 1 0 1 1 1 @17 ATTRIB_XACIS_PICK 0 #
vertex $79 -1 -1 $-1 $32 $80 #
vertex $81 -1 -1 $-1 $32 $82 #
intcurve-curve $-1 -1 -1 $-1 forward { exactcur full nubs 3 open 2 
	0.1702127659574571 3 75.170212765957444 3 
	0.99999999999999989 -0.0050000000000000001 0.0099999999999999985 
	0.99999999999999989 -0.0050000000000000001 0.034999999999999996 
	0.99999999999999989 -0.0050000000000000001 0.059999999999999991 
	0.99999999999999989 -0.0050000000000000001 0.084999999999999992 
	0 
	null_surface 
	null_surface 
	nullbs 
	nullbs 
	-1 
	-1 
	I I 
	0 
	0 
	0 
	
	-1 
	none F F 1 F 0 } I I #
integer_attrib-name_attrib-gen-attrib $-1 -1 $-1 $35 $17 2 1 2 1 1 1 1 1 1 1 1 1 1 1 0 1 1 1 @18 ATTRIB_XACIS_LAYER 0 #
string_attrib-name_attrib-gen-attrib $-1 -1 $83 $36 $25 2 1 2 1 1 1 1 1 1 1 1 1 1 1 0 1 1 1 @23 ATTRIB_XACIS_LAYER_NAME @1 0 #
string_attrib-name_attrib-gen-attrib $-1 -1 $84 $-1 $37 2 1 2 1 1 1 1 1 1 1 1 1 1 1 0 1 1 1 @17 ATTRIB_XACIS_NAME @13 JoinedShell.1 #
face $85 -1 -1 $-1 $-1 $75 $6 $-1 $86 reversed single T 0.72481150344737477 -0.048056867108869999 0.0099999999999999933 1 0.0085553624408080068 0.01 F #
loop $87 -1 -1 $-1 $-1 $88 $37 T 0.71777952136225986 -0.046855288406965644 -1.7347234759768071e-018 1.01 0.018444614251832945 0.095000000000000001 unknown #
spline-surface $-1 -1 -1 $-1 forward { exactsur full nubs 3 3 open open none none 2 9 
	0.35106382978723 3 75.351063829787236 3 
	0 3 39.224460548042551 1 75.215837929284859 1 114.33701609314093 1 155.37406707817721 1 
	187.47696142048844 1 219.8501143206399 1 253.40903771983128 1 287.63001474400988 3 
	1 0.0050000000000000001 0.085000000000000006 
	1 0.0050000000000000001 0.059999999999999998 
	1 0.0050000000000000001 0.035000000000000003 
	1 0.0050000000000000001 0.01 
	0.98667392084146999 0.0068695010400099997 0.085000000000000006 
	0.98667392084146999 0.0068695010400099997 0.059999999999999998 
	0.98667392084146999 0.0068695010400099997 0.035000000000000003 
	0.98667392084146999 0.0068695010400099997 0.01 
	0.96112016697932012 0.010454409162900002 0.085000000000000006 
	0.96112016697932012 0.010454409162900002 0.059999999999999998 
	0.96112016697932012 0.010454409162900002 0.035000000000000003 
	0.96112016697932012 0.010454409162900002 0.01 
	0.91550181780321016 0.0025011477765500001 0.085000000000000006 
	0.91550181780321016 0.0025011477765500001 0.059999999999999998 
	0.91550181780321016 0.0025011477765500001 0.035000000000000003 
	0.91550181780321016 0.0025011477765500001 0.01 
	0.88071192067064996 -0.019548461702339998 0.085000000000000006 
	0.88071192067064996 -0.019548461702339998 0.059999999999999998 
	0.88071192067064996 -0.019548461702339998 0.035000000000000003 
	0.88071192067064996 -0.019548461702339998 0.01 
	0.84946905637818015 -0.035495703324389997 0.085000000000000006 
	0.84946905637818015 -0.035495703324389997 0.059999999999999998 
	0.84946905637818015 -0.035495703324389997 0.035000000000000003 
	0.84946905637818015 -0.035495703324389997 0.01 
	0.81919766539241001 -0.037888649328939997 0.085000000000000006 
	0.81919766539241001 -0.037888649328939997 0.059999999999999998 
	0.81919766539241001 -0.037888649328939997 0.035000000000000003 
	0.81919766539241001 -0.037888649328939997 0.01 
	0.78919809031102006 -0.031938423263319998 0.085000000000000006 
	0.78919809031102006 -0.031938423263319998 0.059999999999999998 
	0.78919809031102006 -0.031938423263319998 0.035000000000000003 
	0.78919809031102006 -0.031938423263319998 0.01 
	0.75891094561111005 -0.020720992355180001 0.085000000000000006 
	0.75891094561111005 -0.020720992355180001 0.059999999999999998 
	0.75891094561111005 -0.020720992355180001 0.035000000000000003 
	0.75891094561111005 -0.020720992355180001 0.01 
	0.73822401733729015 -0.011416211574120001 0.085000000000000006 
	0.73822401733729015 -0.011416211574120001 0.059999999999999998 
	0.73822401733729015 -0.011416211574120001 0.035000000000000003 
	0.73822401733729015 -0.011416211574120001 0.01 
	0.72777952136225998 -0.0067183780374100001 0.085000000000000006 
	0.72777952136225998 -0.0067183780374100001 0.059999999999999998 
	0.72777952136225998 -0.0067183780374100001 0.035000000000000003 
	0.72777952136225998 -0.0067183780374100001 0.01 
	0 
	0 
	0 
	0 
	0 
	0 
	7 39.224460548042551 75.215837929284859 114.33701609314093 155.37406707817721 187.47696142048844 219.8501143206399 253.40903771983128 
	F 1 F 0 F 1 F 0 } I I I I #
integer_attrib-name_attrib-gen-attrib $-1 -1 $-1 $-1 $38 2 1 2 1 1 1 1 1 1 1 1 1 1 1 0 1 1 1 @17 ATTRIB_XACIS_PICK 0 #
coedge $-1 -1 -1 $-1 $89 $90 $44 $68 reversed $38 $-1 #
coedge $-1 -1 -1 $-1 $70 $41 $91 $92 reversed $26 $-1 #
edge $93 -1 -1 $-1 $94 -5 $52 4.9999999999999982 $43 $95 forward @7 unknown T 0.99999999999999989 -0.0049999999999999984 0.084999999999999978 1 0.0050000000000000001 0.085000000000000006 #
coedge $-1 -1 -1 $-1 $43 $42 $88 $96 forward $18 $-1 #
coedge $-1 -1 -1 $-1 $48 $97 $42 $67 reversed $75 $-1 #
edge $98 -1 -1 $-1 $53 -5 $99 5 $42 $100 forward @7 unknown T 1 -0.0050000000000000001 0.01 1 0.0050000000000000001 0.01 #
edge $101 -1 -1 $-1 $72 -37.499999999999993 $77 37.499999999999993 $44 $102 forward @7 unknown T 0.71481150344736999 -0.026267769099510001 0 0.73481150344737001 -0.0062677690995099986 0.095000000000000001 #
pcurve $-1 -1 -1 $-1 0 forward { exppc nubs 1 open 2 
	-37.499999999999993 1 37.499999999999993 1 
	75.170212765957444 290.62048737908913 
	0.1702127659574586 290.62048737908913 
	0.01 
	-1 
	spline forward { ref 0 } I I I I 
	} 0 0 #
coedge $-1 -1 -1 $-1 $45 $63 $89 $103 forward $26 $-1 #
integer_attrib-name_attrib-gen-attrib $-1 -1 $-1 $-1 $46 2 1 2 1 1 1 1 1 1 1 1 1 1 1 0 1 1 1 @17 ATTRIB_XACIS_PICK 0 #
vertex $104 -1 -1 $-1 $46 $105 #
intcurve-curve $-1 -1 -1 $-1 forward { surfintcur full nubs 3 open 9 
	3.3542885973687573e-013 3 39.632274996753061 1 75.997852647920666 1 115.52577143950779 1 156.98948227123932 1 
	189.42614855012286 1 222.13588324944763 1 256.04371683513989 1 290.62048737908913 3 
	0.99999999999999978 -0.0049999999999999992 0.084999999999999992 
	0.98681029470091974 -0.0032102594055899991 0.084999999999999992 
	0.96151804791793982 0.00022170209504999993 0.084999999999999992 
	0.9210552589547798 -0.0061808377493399996 0.084999999999999992 
	0.88708694497913976 -0.027138834729569995 0.084999999999999992 
	0.85395323124613975 -0.044748148850089993 0.084999999999999992 
	0.81952796416653972 -0.048056867108869993 0.084999999999999992 
	0.78750851958988 -0.0418140892222 0.084999999999999992 
	0.75611993308933001 -0.030334070880119992 0.084999999999999992 
	0.73531538418105991 -0.02098696958185 0.084999999999999992 
	0.72481150344736989 -0.016267769099509995 0.084999999999999992 
	0.01 
	spline forward { ref 0 } I I I I 
	plane 1 -0.0050000000000000001 0.085000000000000006 0 0 1 0.001 0 0 forward_v I I I I 
	nubs 1 open 2 
	3.3542885973687573e-013 1 290.62048737908913 1 
	75.170212765957444 3.3542885973687573e-013 
	75.170212765957444 290.62048737908913 
	
	nullbs 
	-1 
	-1 
	I I 
	0 
	0 
	7 39.632274996752777 75.997852647920439 115.52577143950761 156.98948227123958 189.42614855012286 222.13588324944757 256.04371683513983 
	
	-1 
	none F } I I #
coedge $-1 -1 -1 $-1 $97 $48 $90 $106 forward $75 $-1 #
loop $107 -1 -1 $-1 $-1 $48 $58 T 0.72481150344737477 -0.048056867108869999 0.0099999999999999933 1 0.0085553624408080068 0.01 unknown #
integer_attrib-name_attrib-gen-attrib $-1 -1 $-1 $-1 $49 2 1 2 1 1 1 1 1 1 1 1 1 1 1 0 1 1 1 @17 ATTRIB_XACIS_PICK 0 #
vertex $108 -1 -1 $-1 $68 $109 #
intcurve-curve $-1 -1 -1 $-1 forward { exactcur full nubs 3 open 9 
	-145.3102436890812 3 -110.73347314559544 1 -76.825639559903124 1 -44.115904860578297 1 -11.679238581694733 1 
	29.784472250036856 1 69.312391041624025 1 105.67796869279167 1 145.31024368954445 3 
	0.72481150344779244 -0.016267769099699778 0.0099999999999999933 
	0.73531538418134168 -0.020986969581976517 0.0099999999999999933 
	0.75611993308947378 -0.030334070880172582 0.0099999999999999933 
	0.78750851958988011 -0.0418140892222 0.0099999999999999933 
	0.81952796416653995 -0.048056867108869999 0.0099999999999999933 
	0.85395323124613998 -0.044748148850089993 0.0099999999999999933 
	0.88708694497913998 -0.027138834729570002 0.0099999999999999933 
	0.92105525895478002 -0.0061808377493400004 0.0099999999999999933 
	0.96151804791794004 0.00022170209504999999 0.0099999999999999933 
	0.98681029470091997 -0.00321025940559 0.0099999999999999933 
	1 -0.0049999999999999992 0.0099999999999999933 
	0 
	null_surface 
	null_surface 
	nullbs 
	nullbs 
	-1 
	-1 
	I I 
	0 
	0 
	7 -110.73347314559544 -76.825639559903124 -44.115904860578297 -11.679238581694733 29.784472250036856 69.312391041624025 105.67796869279167 
	
	-1 
	none F F 1 F 0 } I I #
integer_attrib-name_attrib-gen-attrib $-1 -1 $-1 $-1 $52 2 1 2 1 1 1 1 1 1 1 1 1 1 1 0 1 1 1 @17 ATTRIB_XACIS_PICK 0 #
point $-1 -1 -1 $-1 0.99999999999999989 -0.0049999999999999984 0.084999999999999978 #
integer_attrib-name_attrib-gen-attrib $-1 -1 $-1 $-1 $53 2 1 2 1 1 1 1 1 1 1 1 1 1 1 0 1 1 1 @17 ATTRIB_XACIS_PICK 0 #
point $-1 -1 -1 $-1 1 -0.0050000000000000001 0.01 #
integer_attrib-name_attrib-gen-attrib $-1 -1 $-1 $56 $25 2 1 2 1 1 1 1 1 1 1 1 1 1 1 0 1 1 1 @18 ATTRIB_XACIS_LAYER 0 #
string_attrib-name_attrib-gen-attrib $-1 -1 $110 $57 $37 2 1 2 1 1 1 1 1 1 1 1 1 1 1 0 1 1 1 @23 ATTRIB_XACIS_LAYER_NAME @1 0 #
string_attrib-name_attrib-gen-attrib $-1 -1 $111 $-1 $58 2 1 2 1 1 1 1 1 1 1 1 1 1 1 0 1 1 1 @17 ATTRIB_XACIS_NAME @7 Split.1 #
plane-surface $-1 -1 -1 $-1 1 0.0050000000000000001 0.01 0 0 1 0.001 0 0 forward_v I I I I #
integer_attrib-name_attrib-gen-attrib $-1 -1 $-1 $-1 $59 2 1 2 1 1 1 1 1 1 1 1 1 1 1 0 1 1 1 @17 ATTRIB_XACIS_PICK 0 #
coedge $-1 -1 -1 $-1 $112 $91 $65 $96 reversed $59 $113 #
coedge $-1 -1 -1 $-1 $114 $62 $70 $103 reversed $38 $-1 #
coedge $-1 -1 -1 $-1 $62 $114 $74 $106 reversed $38 $-1 #
coedge $-1 -1 -1 $-1 $88 $115 $63 $92 forward $59 $116 #
edge $117 -1 -1 $-1 $118 -406.5633757594976 $94 -0 $63 $119 reversed @7 unknown T 0.71777952136285605 -0.046855288406965644 0.075000000000000011 1.01 0.018444614251832945 0.095000000000000001 #
integer_attrib-name_attrib-gen-attrib $-1 -1 $-1 $-1 $64 2 1 2 1 1 1 1 1 1 1 1 1 1 1 0 1 1 1 @17 ATTRIB_XACIS_PICK 0 #
vertex $120 -1 -1 $-1 $64 $121 #
straight-curve $-1 -1 -1 $-1 1 0 0.085000000000000006 0 -0.001 0 F -5 F 4.9999999999999982 #
edge $122 -1 -1 $-1 $99 -37.5 $94 37.500000000000007 $65 $123 forward @7 unknown T 1 0.0050000000000000001 0.01 1 0.0050000000000000001 0.085000000000000006 #
coedge $-1 -1 -1 $-1 $66 $74 $112 $124 forward $75 $-1 #
integer_attrib-name_attrib-gen-attrib $-1 -1 $-1 $-1 $67 2 1 2 1 1 1 1 1 1 1 1 1 1 1 0 1 1 1 @17 ATTRIB_XACIS_PICK 0 #
vertex $125 -1 -1 $-1 $96 $126 #
straight-curve $-1 -1 -1 $-1 1 0 0.01 0 0.001 0 F -5 F 5 #
integer_attrib-name_attrib-gen-attrib $-1 -1 $-1 $-1 $68 2 1 2 1 1 1 1 1 1 1 1 1 1 1 0 1 1 1 @17 ATTRIB_XACIS_PICK 0 #
intcurve-curve $-1 -1 -1 $-1 forward { surfintcur full nubs 3 open 2 
	-37.499999999999993 3 37.499999999999993 3 
	0.72481150344737 -0.016267769099509999 0.085000000000000006 
	0.72481150344737 -0.016267769099509999 0.059999999999999998 
	0.72481150344737 -0.016267769099509999 0.035000000000000003 
	0.72481150344737 -0.016267769099509999 0.01 
	0.01 
	spline forward { ref 0 } I I I I 
	plane 0.70403537804317007 -0.083113506534209999 0.01 -0.95493910620998956 0.29680179148863989 0 0.00029680179148863989 0.00095493910620998961 0 forward_v I I I I 
	nubs 1 open 2 
	-37.499999999999993 1 37.499999999999993 1 
	75.170212765957444 290.62048737908913 
	0.1702127659574586 290.62048737908913 
	
	nullbs 
	-1 
	-1 
	I I 
	0 
	0 
	0 
	
	-1 
	none F } I I #
edge $127 -1 -1 $-1 $118 -5.0000000004524647 $72 4.9999999999125757 $70 $128 forward @7 unknown T 0.72481150344736978 -0.016267769099628952 0.084999999999999992 0.72777952136285606 -0.0067183780372142747 0.085000000000000006 #
integer_attrib-name_attrib-gen-attrib $-1 -1 $-1 $-1 $72 2 1 2 1 1 1 1 1 1 1 1 1 1 1 0 1 1 1 @17 ATTRIB_XACIS_PICK 0 #
point $-1 -1 -1 $-1 0.72481150344736978 -0.016267769099509992 0.084999999999999992 #
edge $129 -1 -1 $-1 $77 -5.0000000000000178 $130 5.0000000003642482 $90 $131 forward @7 unknown T 0.72481150344737477 -0.016267769099510745 0.01 0.72777952136285606 -0.0067183780370630103 0.01 #
integer_attrib-name_attrib-gen-attrib $-1 -1 $-1 $-1 $75 2 1 2 1 1 1 1 1 1 1 1 1 1 1 0 1 1 1 @17 ATTRIB_XACIS_PICK 0 #
integer_attrib-name_attrib-gen-attrib $-1 -1 $-1 $-1 $77 2 1 2 1 1 1 1 1 1 1 1 1 1 1 0 1 1 1 @17 ATTRIB_XACIS_PICK 0 #
point $-1 -1 -1 $-1 0.72481150344737477 -0.016267769099510731 0.01 #
integer_attrib-name_attrib-gen-attrib $-1 -1 $-1 $84 $37 2 1 2 1 1 1 1 1 1 1 1 1 1 1 0 1 1 1 @18 ATTRIB_XACIS_LAYER 0 #
string_attrib-name_attrib-gen-attrib $-1 -1 $132 $85 $58 2 1 2 1 1 1 1 1 1 1 1 1 1 1 0 1 1 1 @23 ATTRIB_XACIS_LAYER_NAME @1 0 #
coedge $-1 -1 -1 $-1 $115 $88 $97 $124 reversed $59 $133 #
pcurve $-1 -1 -1 $-1 0 forward { exppc nubs 1 open 2 
	-37.500000000000007 1 37.500000000000014 1 
	0.35106382978727263 0 
	75.351063829787236 0 
	0.01 
	-1 
	spline forward { ref 5 } I I I I 
	} 0 0 #
coedge $-1 -1 -1 $-1 $90 $89 $115 $134 forward $38 $-1 #
coedge $-1 -1 -1 $-1 $91 $112 $114 $134 reversed $59 $135 #
pcurve $-1 -1 -1 $-1 0 forward { exppc nubs 1 open 2 
	-406.5633757594976 1 -0 1 
	0.35106382978723 287.63001474400988 
	0.35106382978723 1.3073986337985843e-012 
	0.01 
	-1 
	spline forward { ref 5 } I I I I 
	} 0 0 #
integer_attrib-name_attrib-gen-attrib $-1 -1 $-1 $-1 $92 2 1 2 1 1 1 1 1 1 1 1 1 1 1 0 1 1 1 @17 ATTRIB_XACIS_PICK 0 #
vertex $136 -1 -1 $-1 $92 $137 #
intcurve-curve $-1 -1 -1 $-1 forward { surfintcur full nubs 5 open 17 
	0 5 52.9786838475531 3 58.282391574924532 3 63.58609930229597 3 110.14793620732692 3 
	120.52510038982041 3 159.80512896027815 3 169.62023714617075 3 218.448960236994 3 235.20113614209654 3 
	266.66231233152791 3 282.17948568358224 3 308.74535027093896 3 323.95770789855806 3 354.19755362233843 3 
	369.58129087701195 3 406.5633757594976 5 
	1 0.0049999999999999966 0.085000000000000006 
	0.99247435894837355 0.0060557639351670892 0.085000000000000006 
	0.98494871771507786 0.0071115272895889495 0.085000000000000006 
	0.97734568701000879 0.0079645953489016954 0.085000000000000006 
	0.96885688989740537 0.0084446142518329447 0.085000000000000006 
	0.96022027603568483 0.0082579955810356195 0.085000000000000006 
	0.95943305968030734 0.0082353810754566912 0.085000000000000006 
	0.95785620466875854 0.0081784211920275362 0.085000000000000006 
	0.95627497354881819 0.0080983290724463107 0.085000000000000006 
	0.95548334075011543 0.0080525339619264991 0.085000000000000006 
	0.94773504802129482 0.0075488828248899704 0.085000000000000006 
	0.93992626127586765 0.0065013671956405438 0.085000000000000006 
	0.93297013868245438 0.0051396969622766091 0.085000000000000006 
	0.92461526431539198 0.0029333352699805692 0.085000000000000006 
	0.91665224019235259 -1.2355512637507005e-005 0.085000000000000006 
	0.91519299661564857 -0.00058330471018079241 0.085000000000000006 
	0.90838064104248151 -0.0033777064310041697 0.085000000000000006 
	0.90186231914195836 -0.0066385592744646945 0.085000000000000006 
	0.89685663856994247 -0.0094156676303547727 0.085000000000000006 
	0.89074392461655938 -0.012990871740035844 0.085000000000000006 
	0.88470694157571539 -0.01652414120571679 0.085000000000000006 
	0.88349245008660626 -0.01723293884185282 0.085000000000000006 
	0.87630022590975387 -0.021399000563012416 0.085000000000000006 
	0.86912292790484558 -0.025316031820381491 0.085000000000000006 
	0.86310233452166485 -0.02830165607121958 0.085000000000000006 
	0.85492913768594669 -0.031734762330773311 0.085000000000000006 
	0.84658509828150308 -0.034116027226364976 0.085000000000000006 
	0.844466903715409 -0.034640730687883765 0.085000000000000006 
	0.83826636572179392 -0.035951865447631362 0.085000000000000006 
	0.83198327957385587 -0.036650519495610823 0.085000000000000006 
	0.82785420867018011 -0.036855288406965642 0.085000000000000006 
	0.82165202131223014 -0.036812168113580776 0.085000000000000006 
	0.81540153586236774 -0.036292184380894842 0.085000000000000006 
	0.81332694865882627 -0.03607054824564488 0.085000000000000006 
	0.80771096246365226 -0.035346631969696271 0.085000000000000006 
	0.80208799979020162 -0.034305530428426635 0.085000000000000006 
	0.7985419338521903 -0.033536137383228151 0.085000000000000006 
	0.79297918060278549 -0.032169842657579044 0.085000000000000006 
	0.78744820431311513 -0.030585804747470247 0.085000000000000006 
	0.78544329197639184 -0.029983511310136331 0.085000000000000006 
	0.7794534461189796 -0.028105408673760171 0.085000000000000006 
	0.77349942600552934 -0.026019372662182492 0.085000000000000006 
	0.76954967297440002 -0.024552662137337828 0.085000000000000006 
	0.76360925313171979 -0.022243088933314118 0.085000000000000006 
	0.75768480210126454 -0.019814584723287315 0.085000000000000006 
	0.75568831822890759 -0.018983887222513228 0.085000000000000006 
	0.74889730426178258 -0.016120349488742258 0.085000000000000006 
	0.74211985485959109 -0.013150115021991062 0.085000000000000006 
	0.73733799624180452 -0.011017687757275515 0.085000000000000006 
	0.73255875879747123 -0.0088680329323774284 0.085000000000000006 
	0.72777952136285606 -0.0067183780372142773 0.085000000000000006 
	0.01 
	plane 1 -0.0050000000000000001 0.085000000000000006 0 0 1 0.001 0 0 forward_v I I I I 
	spline forward { ref 5 } I I I I 
	nullbs 
	nubs 1 open 2 
	0 1 406.5633757594976 1 
	0.35106382978723 1.3073986337985843e-012 
	0.35106382978723 287.63001474400988 
	
	-1 
	-1 
	I I 
	0 
	0 
	7 56.998667572192048 111.71335254222237 168.63254632280851 224.83722186154026 267.49950620178191 311.55512580352701 358.22673923439822 
	
	-1 
	none F } I I #
integer_attrib-name_attrib-gen-attrib $-1 -1 $-1 $-1 $94 2 1 2 1 1 1 1 1 1 1 1 1 1 1 0 1 1 1 @17 ATTRIB_XACIS_PICK 0 #
point $-1 -1 -1 $-1 1 0.0050000000000000001 0.085000000000000006 #
integer_attrib-name_attrib-gen-attrib $-1 -1 $-1 $-1 $96 2 1 2 1 1 1 1 1 1 1 1 1 1 1 0 1 1 1 @17 ATTRIB_XACIS_PICK 0 #
straight-curve $-1 -1 -1 $-1 1 0.0050000000000000001 0.047500000000000001 0 0 0.001 F -37.5 F 37.500000000000007 #
edge $138 -1 -1 $-1 $130 0 $99 406.4650546981336 $112 $139 forward @7 unknown T 0.72777952136285606 -0.036795208092243854 0.01 1 0.0085553624408080068 0.01 #
integer_attrib-name_attrib-gen-attrib $-1 -1 $-1 $-1 $99 2 1 2 1 1 1 1 1 1 1 1 1 1 1 0 1 1 1 @17 ATTRIB_XACIS_PICK 0 #
point $-1 -1 -1 $-1 1 0.0050000000000000001 0.01 #
integer_attrib-name_attrib-gen-attrib $-1 -1 $-1 $-1 $103 2 1 2 1 1 1 1 1 1 1 1 1 1 1 0 1 1 1 @17 ATTRIB_XACIS_PICK 0 #
straight-curve $-1 -1 -1 $-1 0.72629551240522416 -0.011493073568679393 0.085000000000000006 -0.0002968017914995191 -0.00095493910620660842 0 F -5.0000000004524647 F 4.9999999999125757 #
integer_attrib-name_attrib-gen-attrib $-1 -1 $-1 $-1 $106 2 1 2 1 1 1 1 1 1 1 1 1 1 1 0 1 1 1 @17 ATTRIB_XACIS_PICK 0 #
vertex $140 -1 -1 $-1 $134 $141 #
straight-curve $-1 -1 -1 $-1 0.72629551240481804 -0.011493073568460787 0.01 0.00029680179148864445 0.00095493910620998821 0 F -5.0000000000000178 F 5.0000000003642482 #
integer_attrib-name_attrib-gen-attrib $-1 -1 $-1 $111 $58 2 1 2 1 1 1 1 1 1 1 1 1 1 1 0 1 1 1 @18 ATTRIB_XACIS_LAYER 0 #
pcurve $-1 -1 -1 $-1 0 forward { exppc nubs 1 open 2 
	-406.4650546981336 1 0 1 
	75.351063829787236 4.3732180969473947e-013 
	75.351063829787236 287.63001474400988 
	0.01 
	-1 
	spline forward { ref 5 } I I I I 
	} 0 0 #
edge $142 -1 -1 $-1 $118 0.35106382978725842 $130 75.351063829787236 $114 $143 forward @7 unknown T 0.71777952136225986 -0.016718378037410005 -1.7347234759768071e-018 0.73777952136225988 0.0032816219625899958 0.095000000000000001 #
pcurve $-1 -1 -1 $-1 0 forward { exppc nubs 1 open 2 
	-75.351063829787236 1 -0.35106382978725842 1 
	75.351063829787236 287.63001474400988 
	0.35106382978725842 287.63001474400988 
	0.01 
	-1 
	spline forward { ref 5 } I I I I 
	} 0 0 #
integer_attrib-name_attrib-gen-attrib $-1 -1 $-1 $-1 $118 2 1 2 1 1 1 1 1 1 1 1 1 1 1 0 1 1 1 @17 ATTRIB_XACIS_PICK 0 #
point $-1 -1 -1 $-1 0.72777952136285606 -0.0067183780372142791 0.085000000000000006 #
integer_attrib-name_attrib-gen-attrib $-1 -1 $-1 $-1 $124 2 1 2 1 1 1 1 1 1 1 1 1 1 1 0 1 1 1 @17 ATTRIB_XACIS_PICK 0 #
intcurve-curve $-1 -1 -1 $-1 forward { exactcur full nubs 5 open 16 
	0 5 40.415688725682855 3 60.620728862213824 3 80.830656106289169 3 100.98758923097557 3 
	138.63326638648539 3 156.5819466895951 3 180.20986592382758 3 197.60892679206864 3 235.01483190574825 3 
	241.76152293901964 3 283.61122972334391 3 297.5172121978182 3 342.32602662321159 3 350.01864566426082 3 
	406.4650546981336 5 
	0.72777952136285606 -0.0067183780372142773 0.01 
	0.73300248737781482 -0.0090676177673869804 0.01 
	0.73822545340437973 -0.011416857413641393 0.01 
	0.74345190013254703 -0.013743638250258372 0.01 
	0.75130002997460932 -0.017165533848644127 0.01 
	0.75916778667944163 -0.020430472219041016 0.01 
	0.76179580733365726 -0.021499778602516645 0.01 
	0.76705222314920507 -0.023587607919202887 0.01 
	0.77232598830534316 -0.025563430107391132 0.01 
	0.77496913944563817 -0.02651982206743813 0.01 
	0.7802595071675954 -0.028357946283008986 0.01 
	0.78557737952397566 -0.030036413598347446 0.01 
	0.78824140458199121 -0.030830894426989986 0.01 
	0.79590376530201734 -0.032971115292342236 0.01 
	0.80361966113707017 -0.034674867382820003 0.01 
	0.80865646027218485 -0.035566365879378878 0.01 
	0.81608461812043931 -0.036502300632220465 0.01 
	0.82344763779225894 -0.036778683644813029 0.01 
	0.82582019087934433 -0.036795208092243854 0.01 
	0.83129028699891694 -0.036657417826889326 0.01 
	0.83671214875421318 -0.036095965831952861 0.01 
	0.83977572534790557 -0.035633383553794529 0.01 
	0.84506056938996665 -0.03457230975088018 0.01 
	0.85027686583459572 -0.033057007565519922 0.01 
	0.85250665111597446 -0.032324273694327811 0.01 
	0.85939757164589836 -0.029832709510452197 0.01 
	0.86618560358208918 -0.026722387287234473 0.01 
	0.87078627676713061 -0.02437876187373321 0.01 
	0.87619447359888669 -0.02142640372009216 0.01 
	0.88160717985095172 -0.018322515651611526 0.01 
	0.88243443202434602 -0.017844861799777071 0.01 
	0.88839624210150814 -0.014384648426483385 0.01 
	0.89439826702596337 -0.010815595147370037 0.01 
	0.89968012238800477 -0.0077986248328513457 0.01 
	0.90692726778552335 -0.0040406019755076378 0.01 
	0.91453542063599347 -0.00083488113173627628 0.01 
	0.91648716799091212 -6.0998822913242988e-005 0.01 
	0.92471031403698212 0.0029591732855254352 0.01 
	0.93333379066639377 0.0051994383438476342 0.01 
	0.94002788344389143 0.0064996210700668747 0.01 
	0.94792894048256249 0.0075648432969863347 0.01 
	0.95577267737363303 0.0080735512579309925 0.01 
	0.95692985093247507 0.0081366253656745234 0.01 
	0.9664794549654625 0.0085553624408080068 0.01 
	0.97585150120076658 0.0081295959458120102 0.01 
	0.98396353447616225 0.0072497374845158337 0.01 
	0.99198176734128451 0.0061248690718541717 0.01 
	1 0.005000000000000001 0.01 
	0 
	null_surface 
	null_surface 
	nullbs 
	nullbs 
	-1 
	-1 
	I I 
	0 
	0 
	14 40.415688725682855 60.620728862213824 80.830656106289169 100.98758923097557 138.63326638648539 156.5819466895951 180.20986592382758 197.60892679206864 235.01483190574825 241.76152293901964 283.61122972334391 297.5172121978182 342.32602662321159 350.01864566426082 
	
	-1 
	none F F 1 F 0 } I I #
integer_attrib-name_attrib-gen-attrib $-1 -1 $-1 $-1 $130 2 1 2 1 1 1 1 1 1 1 1 1 1 1 0 1 1 1 @17 ATTRIB_XACIS_PICK 0 #
point $-1 -1 -1 $-1 0.72777952136285606 -0.0067183780372142756 0.01 #
integer_attrib-name_attrib-gen-attrib $-1 -1 $-1 $-1 $134 2 1 2 1 1 1 1 1 1 1 1 1 1 1 0 1 1 1 @17 ATTRIB_XACIS_PICK 0 #
intcurve-curve $-1 -1 -1 $-1 forward { surfintcur full nubs 3 open 2 
	0.35106382978725842 3 75.351063829787236 3 
	0.72777952136225987 -0.0067183780374100045 0.085000000000000006 
	0.72777952136225987 -0.0067183780374100045 0.059999999999999991 
	0.72777952136225987 -0.0067183780374100045 0.034999999999999996 
	0.72777952136225987 -0.0067183780374100045 0.0099999999999999985 
	0.01 
	plane 0.70403537804317007 -0.083113506534209999 0.01 -0.95493910620998956 0.29680179148863989 0 0.00029680179148863989 0.00095493910620998961 0 forward_v I I I I 
	spline forward { ref 5 } I I I I 
	nullbs 
	nubs 1 open 2 
	0.35106382978725842 1 75.351063829787236 1 
	0.35106382978725842 287.63001474400988 
	75.351063829787236 287.63001474400988 
	
	-1 
	-1 
	I I 
	0 
	0 
	0 
	
	-1 
	none F } I I #
End-of-ACIS-data 